<?xml version="1.0" standalone="no"?><!-- Generator: Gravit.io --><svg xmlns="http://www.w3.org/2000/svg" xmlns:xlink="http://www.w3.org/1999/xlink" style="isolation:isolate" viewBox="0 0 250 250" width="250" height="250"><defs><clipPath id="_clipPath_tpOXXlf6rEWWsXpw2Io14ierEIWtk0k8"><rect width="250" height="250"/></clipPath></defs><g clip-path="url(#_clipPath_tpOXXlf6rEWWsXpw2Io14ierEIWtk0k8)"><path d=" M 106.187 23" fill-rule="evenodd" fill="rgb(255,255,255)" vector-effect="non-scaling-stroke" stroke-width="1" stroke="rgb(0,0,0)" stroke-linejoin="miter" stroke-linecap="square" stroke-miterlimit="3"/><path d=" M 57.98 146.374 L 93.254 146.374 L 77.968 172.914 L 172.032 172.914 L 156.746 146.374 L 192.02 146.374 L 242.579 227 L 195.548 226.328 L 183.79 200.125 L 66.21 200.125 L 54.452 226.328 L 7.421 227 L 57.98 146.374 Z " fill="rgb(183,28,28)" vector-effect="non-scaling-stroke" stroke-width="1" stroke="rgb(255,135,135)" stroke-linejoin="miter" stroke-linecap="square" stroke-miterlimit="3"/><path d=" M 73.265 119.499 L 123.824 38.873 L 174.383 119.499 L 139.11 119.499 L 123.824 92.96 L 108.539 119.499 L 73.265 119.499 Z " fill="rgb(183,28,28)" vector-effect="non-scaling-stroke" stroke-width="1" stroke="rgb(255,135,135)" stroke-linejoin="miter" stroke-linecap="square" stroke-miterlimit="3"/><path d=" M 139.11 119.499 L 123.824 93.044 L 108.539 119.499 L 91.49 119.499 L 123.824 69.528 L 156.159 119.499 L 139.11 119.499 Z " fill="rgb(255,135,135)"/><path d=" M 76.793 146.374 L 54.452 185.847 L 195.548 185.847 L 172.032 146.458 L 156.746 146.374 L 172.032 172.914 L 77.968 172.914 L 93.254 146.374 L 76.793 146.374 Z " fill="rgb(255,135,135)"/></g></svg>